<?xml version="1.0" encoding="iso-8859-1"?>
<!-- Generator: Adobe Illustrator 19.2.0, SVG Export Plug-In . SVG Version: 6.00 Build 0)  -->
<svg xmlns="http://www.w3.org/2000/svg" xmlns:xlink="http://www.w3.org/1999/xlink" version="1.1" id="Layer_1" x="0px" y="0px" viewBox="0 0 24 24" style="enable-background:new 0 0 24 24;" xml:space="preserve" width="24px" height="24px">
<path fill="#67182b" d="M20.908,13.22C20.962,12.82,21,12.415,21,12c0-4.971-4.029-9-9-9c-0.415,0-0.82,0.038-1.22,0.092C9.863,2.409,8.731,2,7.5,2  C4.462,2,2,4.462,2,7.5c0,1.231,0.409,2.363,1.092,3.28C3.038,11.18,3,11.585,3,12c0,4.971,4.029,9,9,9  c0.415,0,0.82-0.038,1.22-0.092C14.137,21.591,15.269,22,16.5,22c3.038,0,5.5-2.462,5.5-5.5C22,15.269,21.591,14.137,20.908,13.22z   M12,18c-3.339,0-5.257-1.75-5.257-3.468c0-0.876,0.917-1.156,1.284-1.156c0.848,0,1.13,0.692,1.284,1.009  C10.172,16.156,11,15.923,11.816,16c0.721,0.068,2.413-0.25,2.413-1.486c0-0.118,0.186-0.922-1.275-1.321  c-0.933-0.255-2.579-0.568-3.933-1.089C7.747,11.614,7,10.604,7,9.303C7,8.651,7.333,6,11.844,6c3.01,0,4.615,1.542,4.615,2.899  c0,0.312-0.119,0.587-0.358,0.835c-0.239,0.248-0.913,0.61-1.651,0.138c-0.186-0.119-0.339-0.367-0.523-0.688  C13.706,8.78,13.344,8,11.679,8c-1.616,0-2.064,0.771-2.064,1.092c0,1.08,2.061,1.307,2.615,1.45c2.021,0.521,4.771,1,4.771,3.725  C17,17.396,13.745,18,12,18z"/>
</svg>
